<svg width="28" height="28" viewBox="0 0 28 28" fill="none" xmlns="http://www.w3.org/2000/svg">
<path fill-rule="evenodd" clip-rule="evenodd" d="M7.04287 8.80274C7.04287 7.55465 8.05465 6.54287 9.30274 6.54287H10.33C10.9267 6.54253 11.499 6.3062 11.9221 5.88545L12.6412 5.1664C13.0654 4.73984 13.6421 4.5 14.2437 4.5C14.8452 4.5 15.4219 4.73984 15.8461 5.1664L16.5652 5.88545C16.9883 6.3062 17.5606 6.54253 18.1573 6.54287H19.1846C20.4327 6.54287 21.4444 7.55465 21.4444 8.80274V9.82996C21.4448 10.4267 21.6811 10.999 22.1019 11.4221L22.8209 12.1412C23.2475 12.5654 23.4873 13.1421 23.4873 13.7437C23.4873 14.3452 23.2475 14.9219 22.8209 15.3461L22.1019 16.0652C21.6811 16.4883 21.4448 17.0606 21.4444 17.6573V18.6846C21.4444 19.9327 20.4327 20.9444 19.1846 20.9444H18.1573C17.5606 20.9448 16.9883 21.1811 16.5652 21.6019L15.8461 22.3209C15.4219 22.7475 14.8452 22.9873 14.2437 22.9873C13.6421 22.9873 13.0654 22.7475 12.6412 22.3209L11.9221 21.6019C11.499 21.1811 10.9267 20.9448 10.33 20.9444H9.30274C8.05465 20.9444 7.04287 19.9327 7.04287 18.6846V17.6573C7.04253 17.0606 6.8062 16.4883 6.38545 16.0652L5.6664 15.3461C5.23984 14.9219 5 14.3452 5 13.7437C5 13.1421 5.23984 12.5654 5.6664 12.1412L6.38545 11.4221C6.8062 10.999 7.04253 10.4267 7.04287 9.82996V8.80274Z" fill="#FFEBED"/>
<path d="M7.04287 8.80274C7.04287 7.55465 8.05465 6.54287 9.30274 6.54287H10.33C10.9267 6.54253 11.499 6.3062 11.9221 5.88545L12.6412 5.1664C13.0654 4.73984 13.6421 4.5 14.2437 4.5C14.8452 4.5 15.4219 4.73984 15.8461 5.1664L16.5652 5.88545C16.9883 6.3062 17.5606 6.54253 18.1573 6.54287H19.1846C20.4327 6.54287 21.4444 7.55465 21.4444 8.80274V9.82996C21.4448 10.4267 21.6811 10.999 22.1019 11.4221L22.8209 12.1412C23.2475 12.5654 23.4873 13.1421 23.4873 13.7437C23.4873 14.3452 23.2475 14.9219 22.8209 15.3461L22.1019 16.0652C21.6811 16.4883 21.4448 17.0606 21.4444 17.6573V18.6846C21.4444 19.9327 20.4327 20.9444 19.1846 20.9444H18.1573C17.5606 20.9448 16.9883 21.1811 16.5652 21.6019L15.8461 22.3209C15.4219 22.7475 14.8452 22.9873 14.2437 22.9873C13.6421 22.9873 13.0654 22.7475 12.6412 22.3209L11.9221 21.6019C11.499 21.1811 10.9267 20.9448 10.33 20.9444H9.30274C8.05465 20.9444 7.04287 19.9327 7.04287 18.6846V17.6573C7.04253 17.0606 6.8062 16.4883 6.38545 16.0652L5.6664 15.3461C5.23984 14.9219 5 14.3452 5 13.7437C5 13.1421 5.23984 12.5654 5.6664 12.1412L6.38545 11.4221C6.8062 10.999 7.04253 10.4267 7.04287 9.82996V8.80274" stroke="#D70018" stroke-width="1.25" stroke-linecap="round" stroke-linejoin="round"/>
<path fill-rule="evenodd" clip-rule="evenodd" d="M11.1523 16.8149L17.3156 10.6516L11.1523 16.8149Z" fill="#FFEBED"/>
<path d="M11.1523 16.8149L17.3156 10.6516" stroke="#D70018" stroke-width="1.25" stroke-linecap="round" stroke-linejoin="round"/>
<circle cx="11.666" cy="11.1652" r="0.513608" fill="#FFEBED" stroke="#D70018" stroke-width="1.25" stroke-linecap="round" stroke-linejoin="round"/>
<circle cx="16.8027" cy="16.3012" r="0.513608" fill="#FFEBED" stroke="#D70018" stroke-width="1.25" stroke-linecap="round" stroke-linejoin="round"/>
</svg>
