<svg width="28" height="28" viewBox="0 0 28 28" fill="none" xmlns="http://www.w3.org/2000/svg">
<path fill-rule="evenodd" clip-rule="evenodd" d="M21.8988 9.99952L16.2377 5.59633C15.2156 4.80122 13.7843 4.80122 12.7623 5.59633L7.10012 9.99952C6.41056 10.5358 6.0074 11.3605 6.00781 12.234V19.877C6.00781 21.0495 6.95833 22 8.13085 22H20.8691C22.0416 22 22.9921 21.0495 22.9921 19.877V12.234C22.9921 11.3604 22.5888 10.5356 21.8988 9.99952Z" fill="#FFEBED"/>
<path d="M21.8988 9.99952L16.2377 5.59633C15.2156 4.80122 13.7843 4.80122 12.7623 5.59633L7.10012 9.99952C6.41056 10.5358 6.0074 11.3605 6.00781 12.234V19.877C6.00781 21.0495 6.95833 22 8.13085 22H20.8691C22.0416 22 22.9921 21.0495 22.9921 19.877V12.234C22.9921 11.3604 22.5888 10.5356 21.8988 9.99952" stroke="#D70018" stroke-width="1.25" stroke-linecap="round" stroke-linejoin="round"/>
<path d="M14.5455 17.9632H14.5523" stroke="#D70018" stroke-width="1.25" stroke-linecap="round" stroke-linejoin="round"/>
<path d="M12.6348 16.0519C13.6906 14.9964 15.402 14.9964 16.4578 16.0519" stroke="#D70018" stroke-width="1.25" stroke-linecap="round" stroke-linejoin="round"/>
<path d="M10.7227 14.1396C11.7368 13.1254 13.1122 12.5557 14.5464 12.5557C15.9806 12.5557 17.356 13.1254 18.3701 14.1396" stroke="#D70018" stroke-width="1.25" stroke-linecap="round" stroke-linejoin="round"/>
</svg>
