<svg width="28" height="28" viewBox="0 0 28 28" fill="none" xmlns="http://www.w3.org/2000/svg">
<path d="M11.1379 3H16.0168C16.8654 3 17.6078 3.63637 17.6078 4.48487C17.6078 4.48487 17.6078 4.48487 17.6078 4.59093V7.34855H9.54688V4.59093C9.54688 3.74244 10.2893 3 11.1379 3Z" fill="#FFEBED" stroke="#D70018" stroke-width="1.25" stroke-linecap="round" stroke-linejoin="round"/>
<path d="M16.0168 24.7425H11.1379C10.2893 24.7425 9.54688 24.0001 9.54688 23.1516V20.5H17.6078V23.1516C17.6078 24.1061 16.8654 24.7425 16.0168 24.7425Z" fill="#FFEBED" stroke="#D70018" stroke-width="1.25" stroke-linecap="round" stroke-linejoin="round"/>
<path d="M9.4395 7.34839H17.7126C19.0914 7.34839 20.1521 8.40901 20.1521 9.78782V18.0607C20.1521 19.4395 19.0914 20.5001 17.7126 20.5001H9.4395C8.06065 20.5001 7 19.4395 7 18.0607V9.78782C7 8.40901 8.06065 7.34839 9.4395 7.34839Z" fill="#FFEBED" stroke="#D70018" stroke-width="1.25" stroke-linecap="round" stroke-linejoin="round"/>
<path d="M21.0003 10.6362H20.2578V12.4393H21.0003V10.6362Z" stroke="#D70018" stroke-width="1.25" stroke-linecap="round" stroke-linejoin="round"/>
</svg>
