<svg width="25" height="24" viewBox="0 0 25 24" fill="none" xmlns="http://www.w3.org/2000/svg">
<path d="M12.75 9.81836V14.4656H19.2082C18.9246 15.9602 18.0736 17.2257 16.7972 18.0766L20.6917 21.0984C22.9608 19.0039 24.2699 15.9276 24.2699 12.273C24.2699 11.4221 24.1936 10.6039 24.0517 9.81849L12.75 9.81836Z" fill="#4285F4"/>
<path d="M6.02461 14.2842L5.14625 14.9566L2.03711 17.3783C4.01165 21.2947 8.05862 24.0002 12.7495 24.0002C15.9894 24.0002 18.7057 22.9311 20.6912 21.0984L16.7967 18.0765C15.7276 18.7965 14.364 19.2329 12.7495 19.2329C9.62951 19.2329 6.97868 17.1275 6.02952 14.2911L6.02461 14.2842Z" fill="#34A853"/>
<path d="M2.03718 6.62158C1.21904 8.23606 0.75 10.0579 0.75 11.9997C0.75 13.9415 1.21904 15.7633 2.03718 17.3778C2.03718 17.3886 6.02997 14.2796 6.02997 14.2796C5.78998 13.5596 5.64812 12.796 5.64812 11.9996C5.64812 11.2031 5.78998 10.4395 6.02997 9.71951L2.03718 6.62158Z" fill="#FBBC05"/>
<path d="M12.7497 4.77818C14.517 4.77818 16.0879 5.38907 17.3425 6.56727L20.7788 3.13095C18.6952 1.18917 15.9898 0 12.7497 0C8.05887 0 4.01165 2.69454 2.03711 6.62183L6.02978 9.72001C6.97882 6.88362 9.62976 4.77818 12.7497 4.77818Z" fill="#EA4335"/>
</svg>
